# xmcd CD database file
#
# Track frame offsets:
#	150
#	20850
#	38364
#	59066
#
# Disc length: 1018 seconds
#
# Revision: 1
# Processed by: cddbd v1.5.2PL0 Copyright (c) Steve Scherf et al.
# Submitted via: CDex 1.70beta1
#
DISCID=3003f804
DTITLE=mihimaru GT  - とろけちゃうダンディ
DYEAR=2009
DGENRE=J-Pop
TTITLE0=とろけちゃうダンディ~
TTITLE1=mute 
TTITLE2=とろけちゃうダンディ~ (Instrumental) 
TTITLE3=mute (Instrumental)
EXTD=YEAR: 2009
EXTT0=
EXTT1=
EXTT2=
EXTT3=
PLAYORDER=
